<svg width="527" height="550" viewBox="0 0 527 550" fill="none" xmlns="http://www.w3.org/2000/svg"><path d="M1.89 521v-8.121l6.575-1.332v-43.613l-6.574-1.332v-8.164h27.284l16.114 42.453h.258l15.684-42.453h27.113v8.164l-6.617 1.332v43.613l6.617 1.332V521H61.445v-8.121l6.875-1.332v-10.184l.258-28.789-.258-.043-18.218 48.039H39.488l-18.562-47.566-.301.043.902 26.683v11.817l7.305 1.332V521zm113.094.902q-7.046 0-12.074-2.964-4.984-3.008-7.648-8.336-2.622-5.371-2.621-12.418v-.86q0-6.96 2.62-12.289 2.665-5.328 7.649-8.336 4.984-3.051 11.988-3.051 7.005 0 11.989 3.008t7.605 8.336q2.664 5.328 2.664 12.332v.86q0 7.003-2.664 12.375-2.62 5.328-7.605 8.336-4.942 3.007-11.903 3.007m0-10.484q3.008 0 4.856-1.633 1.89-1.633 2.75-4.597.902-2.966.902-7.004v-.86q0-3.91-.902-6.832-.86-2.964-2.75-4.64t-4.942-1.676q-3.008 0-4.898 1.676t-2.75 4.64q-.86 2.922-.859 6.832v.86q0 4.038.859 7.046.86 2.966 2.75 4.598 1.89 1.59 4.984 1.59m54.442 10.484q-4.254 0-7.219-1.675-2.965-1.677-4.984-4.856l-.946 5.629h-11.859v-57.535l-6.574-1.332v-8.164h20.281v25.308q1.933-2.707 4.813-4.168t6.66-1.461q5.586 0 9.453 3.008 3.91 2.965 5.929 8.465 2.063 5.457 2.063 12.891v.902q0 6.961-2.063 12.16-2.02 5.157-5.972 7.992-3.91 2.836-9.582 2.836m-4.297-10.613q4.469 0 6.316-3.137 1.891-3.179 1.891-9.238v-.902q0-4.34-.859-7.391-.817-3.051-2.579-4.683-1.761-1.676-4.597-1.676-2.493 0-4.34 1.203-1.805 1.16-2.836 3.137v19.078q1.203 1.804 2.965 2.707t4.039.902M191.211 521v-8.121l5.758-1.332v-27.543l-6.574-1.332v-8.164h20.324v37.039l5.758 1.332V521zm5.328-55.816v-11.215h14.18v11.215zM219.398 521v-8.121l5.801-1.332v-48.082l-6.66-1.332v-8.164h20.41v57.578l5.758 1.332V521zm50.575.902q-6.747 0-11.774-2.922-5.027-2.964-7.82-8.078-2.75-5.156-2.75-11.687v-1.676q0-6.962 2.535-12.375t7.305-8.465q4.769-3.093 11.429-3.051 6.316 0 10.657 2.45 4.34 2.448 6.574 7.175 2.277 4.684 2.277 11.43v7.305h-26.511l-.043.258q.257 2.664 1.46 4.726 1.247 2.02 3.395 3.223 2.192 1.203 5.328 1.203 3.223 0 6.102-.773 2.922-.774 5.886-2.407l3.438 8.379q-3.007 2.278-7.477 3.781-4.425 1.504-10.011 1.504m-8.035-28.703h13.75v-1.117q0-2.664-.645-4.512-.602-1.89-2.063-2.879-1.417-.988-3.781-.988-2.406 0-3.953 1.203t-2.363 3.309q-.774 2.105-1.074 4.769zm79.449 28.703q-7.262 0-13.063-1.504-5.8-1.503-11.472-5.414v-15.683h10.613l1.332 8.637q1.633 1.589 5.07 2.621 3.438 1.03 7.52 1.031 3.137 0 5.285-.817 2.148-.859 3.266-2.406 1.116-1.59 1.117-3.738 0-2.063-1.032-3.652-.987-1.634-3.308-3.008t-6.274-2.707q-7.734-2.364-12.761-4.985-4.984-2.664-7.477-6.273-2.45-3.652-2.449-8.938 0-5.113 2.879-8.98 2.922-3.91 7.992-6.145t11.687-2.32q7.434-.172 13.149 1.59t9.969 5.07v14.567h-10.227l-1.719-8.465q-1.546-.903-4.296-1.59-2.707-.687-6.016-.688-2.837 0-5.027.817-2.15.774-3.438 2.363-1.246 1.547-1.246 3.824 0 1.848 1.074 3.309 1.074 1.46 3.695 2.836 2.621 1.332 7.262 2.965 10.485 3.007 15.899 7.734 5.457 4.727 5.457 12.59 0 5.457-2.965 9.367-2.922 3.867-8.207 5.93t-12.289 2.062m27.672-.902v-8.121l5.757-1.332v-48.082l-6.617-1.332v-8.164h20.281v26.383q2.149-3.18 5.286-4.942 3.179-1.762 7.304-1.762 6.876 0 10.957 4.727t4.082 14.609v18.563l5.758 1.332V521h-24.449v-8.121l4.941-1.332v-18.649q0-4.812-1.718-6.703-1.72-1.933-4.985-1.933-2.277 0-4.125.902-1.847.86-3.051 2.621v23.762l4.942 1.332V521zm78.418.902q-7.047 0-12.075-2.964-4.984-3.008-7.648-8.336-2.62-5.371-2.621-12.418v-.86q0-6.96 2.621-12.289 2.664-5.328 7.648-8.336 4.984-3.051 11.989-3.051 7.003 0 11.988 3.008t7.605 8.336q2.664 5.328 2.664 12.332v.86q0 7.003-2.664 12.375-2.62 5.328-7.605 8.336-4.942 3.007-11.902 3.007m0-10.484q3.007 0 4.855-1.633 1.89-1.633 2.75-4.597.903-2.966.902-7.004v-.86q0-3.91-.902-6.832-.86-2.964-2.75-4.64t-4.941-1.676q-3.008 0-4.899 1.676-1.89 1.676-2.75 4.64-.86 2.922-.859 6.832v.86q0 4.038.859 7.046.86 2.966 2.75 4.598 1.891 1.59 4.985 1.59m27.457 27.457v-8.164l5.929-1.332v-45.375l-6.617-1.332v-8.164h19.379l.559 5.328q1.976-2.965 4.769-4.555 2.793-1.632 6.789-1.633 5.544 0 9.496 3.051 3.996 3.05 6.102 8.551 2.148 5.457 2.148 12.762v.902q0 6.875-2.148 12.074-2.106 5.2-6.145 8.078-3.996 2.836-9.625 2.836-3.61 0-6.359-1.289-2.707-1.332-4.684-3.91v12.676l5.672 1.332v8.164zm26.554-27.457q4.468 0 6.36-3.352 1.89-3.351 1.89-9.152v-.902q0-4.125-.859-7.219-.86-3.094-2.707-4.813-1.804-1.718-4.77-1.718-2.277 0-4.039 1.031-1.762.988-2.836 2.965v19.68a7.14 7.14 0 0 0 2.836 2.621q1.804.86 4.125.859" fill="#fff"/><path d="M66.962 97.111v291.747a3.516 3.516 0 0 0 3.513 3.513h384.521a3.516 3.516 0 0 0 3.513-3.513V97.111z" fill="#ED5176"/><path d="M66.962 197.163h391.547v19.818H66.962zm0-100.052h391.547v19.82H66.962z" fill="#BA365F"/><path d="M193.192 97.111v19.96c0 14.063 11.4 25.462 25.463 25.462h107.544c18.152 0 32.869-14.714 32.869-32.869V97.111zm244.606 0v291.747a3.516 3.516 0 0 1-3.513 3.513h20.711a3.516 3.516 0 0 0 3.513-3.513V97.111z" fill="#BA365F"/><path d="M215.907 261.124v131.247h93.656V261.124c0-4.851-3.931-8.786-8.782-8.786h-76.088a8.785 8.785 0 0 0-8.786 8.786" fill="#6A7193"/><path d="M229.3 274.528a8.78 8.78 0 0 1 8.783-8.783h71.48v-4.621c0-4.851-3.931-8.786-8.782-8.786h-76.088a8.785 8.785 0 0 0-8.786 8.786v131.247H229.3z" fill="#575B7A"/><path d="M45.037 157.8v35.853a3.513 3.513 0 0 0 3.513 3.513h428.373a3.514 3.514 0 0 0 3.513-3.513V157.8a3.51 3.51 0 0 0-3.513-3.513H48.549a3.51 3.51 0 0 0-3.513 3.513z" fill="#C8E7F7"/><path d="M476.921 154.287h-20.632a3.51 3.51 0 0 1 3.513 3.513v35.853a3.51 3.51 0 0 1-3.513 3.513h20.632a3.51 3.51 0 0 0 3.513-3.513V157.8a3.51 3.51 0 0 0-3.513-3.513" fill="#8CBCD6"/><path d="M338.265 273.855v71.879a7.43 7.43 0 0 0 2.178 5.26 7.44 7.44 0 0 0 5.26 2.178h81.515a7.43 7.43 0 0 0 5.26-2.178 7.45 7.45 0 0 0 2.178-5.26v-71.879a7.43 7.43 0 0 0-4.592-6.87 7.5 7.5 0 0 0-2.846-.565h-81.514a7.44 7.44 0 0 0-6.873 4.589 7.4 7.4 0 0 0-.566 2.846m-247.45 0v71.879a7.43 7.43 0 0 0 2.178 5.26 7.45 7.45 0 0 0 5.26 2.178h81.515a7.44 7.44 0 0 0 7.438-7.438v-71.879a7.43 7.43 0 0 0-4.591-6.87 7.5 7.5 0 0 0-2.847-.565H98.253a7.436 7.436 0 0 0-7.438 7.435M480.98 77.76V61.647H44.491V77.76c10.69 0 19.352 8.665 19.352 19.352h397.785c0-10.69 8.662-19.352 19.352-19.352" fill="#C8E7F7"/><path d="M193.192 61.648h165.876v35.464H193.193zm267.156 0V77.76c-10.686 0-19.352 8.662-19.352 19.352h20.632c0-10.69 8.662-19.352 19.352-19.352V61.648z" fill="#8CBCD6"/><path d="M179.8 32.049v71.869c0 14.066 11.399 25.462 25.463 25.462h114.946c14.062 0 25.463-11.396 25.463-25.462V32.049c0-14.062-11.4-25.462-25.463-25.462H205.264c-14.063 0-25.463 11.4-25.463 25.462z" fill="#FFEB96"/><path d="M458.509 274.184a6.59 6.59 0 0 0-6.587 6.587v105.012H316.15V261.125c0-8.478-6.895-15.374-15.369-15.374H224.69c-8.475 0-15.37 6.899-15.37 15.373v124.66H73.549V280.772a6.59 6.59 0 0 0-6.587-6.587 6.59 6.59 0 0 0-6.587 6.587v108.086c0 5.568 4.532 10.1 10.1 10.1h384.521c5.568 0 10.1-4.532 10.1-10.1V280.772a6.587 6.587 0 0 0-6.587-6.587zM222.494 385.783V261.125a2.2 2.2 0 0 1 2.196-2.2h76.091a2.2 2.2 0 0 1 2.196 2.199v124.66z" fill="#000"/><path d="M427.218 359.759c7.733 0 14.025-6.292 14.025-14.025v-71.879c0-7.732-6.292-14.022-14.025-14.022h-81.514c-7.733 0-14.025 6.289-14.025 14.022v71.879c0 7.733 6.292 14.025 14.025 14.025zm-82.366-14.025v-71.879c0-.466.381-.848.851-.848h81.515a.85.85 0 0 1 .851.848v71.879a.854.854 0 0 1-.851.851h-81.514a.85.85 0 0 1-.851-.851zm-165.083 14.025c7.733 0 14.024-6.292 14.024-14.025v-71.879c0-7.732-6.291-14.022-14.024-14.022H98.253c-7.733 0-14.025 6.289-14.025 14.022v71.879c0 7.733 6.292 14.025 14.025 14.025zm-82.367-14.025v-71.879c0-.466.381-.848.851-.848h81.516c.469 0 .851.381.851.848v71.879a.85.85 0 0 1-.851.851H98.253a.853.853 0 0 1-.85-.851" fill="#000"/><path d="M468.21 97.108c0-7.036 5.726-12.759 12.77-12.759a6.585 6.585 0 0 0 6.587-6.586V61.645a6.585 6.585 0 0 0-6.587-6.587H372.245a6.59 6.59 0 0 0-6.587 6.587 6.584 6.584 0 0 0 6.587 6.587h102.148v3.791c-9.02 2.367-16.138 9.483-18.508 18.498H352.262V32.049c0-17.67-14.379-32.049-32.05-32.049H205.263c-17.675 0-32.05 14.378-32.05 32.049v23.01H44.491a6.587 6.587 0 0 0-6.587 6.587v16.117a6.587 6.587 0 0 0 6.587 6.586c7.044 0 12.77 5.723 12.77 12.759a6.58 6.58 0 0 0 3.145 5.62v44.989H48.553c-5.572 0-10.103 4.531-10.103 10.1v35.867c0 5.568 4.531 10.1 10.103 10.1h11.853v50.688a6.59 6.59 0 0 0 6.587 6.587 6.59 6.59 0 0 0 6.587-6.587v-50.688h378.857v50.699a6.588 6.588 0 0 0 13.173 0v-50.699h11.853c5.572 0 10.104-4.532 10.104-10.1v-35.867c0-5.569-4.532-10.1-10.104-10.1H465.61v-45.363a6.59 6.59 0 0 0 2.6-5.246M186.384 32.049c0-10.408 8.47-18.875 18.875-18.875h114.949c10.409 0 18.876 8.466 18.876 18.875v71.869c0 10.409-8.467 18.875-18.876 18.875H205.263c-10.409 0-18.876-8.466-18.876-18.875V32.049zM474.393 190.61H51.623v-29.72h422.77zM73.58 147.717v-44.022h79.876a6.588 6.588 0 0 0 0-13.174h-83.87c-2.37-9.015-9.488-16.13-18.508-18.498v-3.792H173.21v35.689c0 17.672 14.377 32.049 32.049 32.049h114.949c17.675 0 32.05-14.377 32.05-32.049v-.223h100.174v44.019zm163.686 168.05h-5.269a6.585 6.585 0 0 0-6.587 6.587 6.59 6.59 0 0 0 6.587 6.587h5.269a6.588 6.588 0 1 0 0-13.174" fill="#000"/><path d="M215.553 39.463h8.073l8.282 39.59c1.605 7.67 8.459 13.242 16.298 13.242h39.113c6.886 0 13.147-4.33 15.578-10.77l12.917-34.192c.605-1.602.813-3.328.605-5.029A10.59 10.59 0 0 0 305.91 33h-55.319a6.587 6.587 0 1 0 0 13.174h51.579l-11.594 30.695a3.5 3.5 0 0 1-3.252 2.251h-39.117a3.5 3.5 0 0 1-3.403-2.765l-8.316-39.744c-1.252-5.983-6.594-10.322-12.707-10.322h-8.223a6.59 6.59 0 0 0-6.087 4.065 6.586 6.586 0 0 0 6.083 9.108zm33.789 58.359h-1.757a6.586 6.586 0 1 0 0 13.173h1.757a6.586 6.586 0 0 0 6.587-6.586 6.584 6.584 0 0 0-6.587-6.587m28.543 0h-1.757a6.586 6.586 0 1 0 0 13.173h1.757a6.586 6.586 0 0 0 6.587-6.586 6.584 6.584 0 0 0-6.587-6.587" fill="#000"/></svg>